

Release info:

General
Format                                   : Flash Video
File size                                : 245 MiB
Duration                                 : 43mn 1s
Overall bit rate                         : 796 Kbps

Video
Format                                   : AVC
Format/Info                              : Advanced Video Codec
Format profile                           : Main@L3.1
Format settings, CABAC                   : Yes
Format settings, ReFrames                : 3 frames
Format settings, GOP                     : M=1, N=60
Codec ID                                 : 7
Duration                                 : 43mn 1s
Bit rate                                 : 658 Kbps
Width                                    : 852 pixels
Height                                   : 480 pixels
Display aspect ratio                     : 16:9
Frame rate mode                          : Constant
Frame rate                               : 29.970 fps
Color space                              : YUV
Chroma subsampling                       : 4:2:0
Bit depth                                : 8 bits
Scan type                                : Progressive
Bits/(Pixel*Frame)                       : 0.054
Stream size                              : 203 MiB (83%)

Audio
Format                                   : AAC
Format/Info                              : Advanced Audio Codec
Format profile                           : LC
Codec ID                                 : 10
Duration                                 : 43mn 1s
Bit rate                                 : 129 Kbps
Channel(s)                               : 2 channels
Channel positions                        : Front: L R
Sampling rate                            : 44.1 KHz
Compression mode                         : Lossy
Stream size                              : 39.6 MiB (16%)



Source:
credit to original movie ripper  (Thanks)

IMDB Info:

A users guide to the cosmos from the big bang to galaxies, stars, planets and moons. Where did it all come from and how does it all fit together. A primer for anyone who has ever looked up at the night sky and wondered.

Stars: Michio Kaku, Phil Plait and Michelle Thaller 

Ratings: 8.8/10

Genres: Documentary
 
http://www.imdb.com/title/tt1832668/

Screen Shot:
 
http://www.shotpix.com/images/45019472082416300751.png 
http://www.shotpix.com/images/90274651797657402103.png 
http://www.shotpix.com/images/42001765637240091559.png 
http://www.shotpix.com/images/77033787636263400688.png 
http://www.shotpix.com/images/61834110189121003018.png 
http://www.shotpix.com/images/47534902387743686794.png